<svg width="56" height="56" viewBox="0 0 56 56" fill="none" xmlns="http://www.w3.org/2000/svg">
<circle cx="28" cy="28" r="28" fill="#F0F4F5"/>
<path d="M40.3873 16.806C37.4096 14.4028 33.1524 12.9989 27.9465 13C23.0067 13 18.7888 14.3294 15.7724 16.7011C14.2649 17.8851 13.0658 19.3301 12.2489 20.9735C11.4309 22.6165 10.9987 24.4535 11 26.4039C10.9987 28.7619 11.5158 30.9398 12.5613 32.8401C13.5567 34.6564 15.038 36.2009 16.9241 37.4088C16.4782 39.2 15.8512 41.7599 15.8512 41.7611C15.8225 41.8761 15.8075 41.996 15.8087 42.1175C15.8075 42.5984 16.0423 43.0614 16.4507 43.3599L16.4532 43.3617V43.3623C16.7455 43.5744 17.0977 43.6829 17.45 43.6829C17.7148 43.6829 17.9833 43.6215 18.2256 43.497L18.2494 43.4851L18.2731 43.4714C18.2743 43.4708 18.6103 43.2807 19.1274 42.9887C19.9018 42.5513 21.0821 41.8858 22.135 41.2941C22.6609 40.9985 23.1555 40.7214 23.5502 40.5015C23.9435 40.2823 24.2458 40.1148 24.3583 40.0558L24.3633 40.0529L24.3707 40.0487C25.8383 39.255 27.0074 39.1215 27.9466 39.1167C31.8448 39.1114 35.9958 38.3903 39.3107 36.4162C40.9643 35.4276 42.4032 34.109 43.415 32.4208C44.4291 30.7338 45.0012 28.6917 45 26.3278C45.0073 22.6099 43.3674 19.2032 40.3873 16.806ZM41.1954 31.208C40.6096 32.1822 39.8427 33.0022 38.9222 33.697C37.542 34.738 35.8097 35.4894 33.91 35.9739C32.0109 36.4595 29.9487 36.6764 27.9466 36.6758C26.7175 36.6711 25.0002 36.8921 23.1154 37.923V37.9224C22.9068 38.0332 22.4422 38.2913 21.8302 38.6333C20.9521 39.1249 19.7968 39.775 18.8326 40.3196C19.0674 39.3632 19.341 38.2555 19.5445 37.4421V37.4409C19.5783 37.3051 19.6032 37.1578 19.6032 36.9904C19.6058 36.7544 19.542 36.4666 19.3997 36.2271C19.2935 36.0478 19.1573 35.9065 19.0387 35.81C18.8564 35.6652 18.7202 35.6026 18.644 35.5627L18.5666 35.5252L18.5578 35.5204C16.8879 34.4937 15.6589 33.2185 14.8271 31.7068C13.9952 30.1926 13.5581 28.4258 13.5581 26.4039C13.5581 24.7944 13.9091 23.3292 14.5598 22.02C15.5365 20.0596 17.1939 18.4334 19.4596 17.2744C21.7229 16.1178 24.5993 15.4409 27.9466 15.4409C32.6803 15.4421 36.3093 16.7101 38.735 18.6693C41.1568 20.6352 42.4332 23.2821 42.442 26.3276C42.4394 28.3239 41.9723 29.9083 41.1954 31.208Z" fill="#4C2C92"/>
<path d="M19.9671 24.6097C18.8862 24.6097 18.01 25.4464 18.01 26.4779C18.01 27.5093 18.8862 28.3454 19.9671 28.3454C21.0488 28.3454 21.9249 27.5094 21.9249 26.4779C21.925 25.4464 21.0488 24.6097 19.9671 24.6097Z" fill="#4C2C92"/>
<path d="M27.6054 24.6097C26.5244 24.6097 25.6482 25.4464 25.6482 26.4779C25.6482 27.5093 26.5244 28.3454 27.6054 28.3454C28.6871 28.3454 29.5632 27.5094 29.5632 26.4779C29.5632 25.4464 28.6871 24.6097 27.6054 24.6097Z" fill="#4C2C92"/>
<path d="M35.2378 24.6097C34.1569 24.6097 33.28 25.4464 33.28 26.4779C33.28 27.5093 34.1569 28.3454 35.2378 28.3454C36.3194 28.3454 37.1957 27.5094 37.1957 26.4779C37.1957 25.4464 36.3194 24.6097 35.2378 24.6097Z" fill="#4C2C92"/>
</svg>
