<svg xmlns="http://www.w3.org/2000/svg" width="67" height="67" viewBox="0 0 67 67" fill="none">
  <circle cx="33.5" cy="33.5" r="33.5" fill="#F0F4F5"/>
  <path d="M48.3238 20.1058C44.7613 17.2306 39.6678 15.5509 33.4393 15.5522C27.5292 15.5522 22.4828 17.1428 18.8739 19.9803C17.0702 21.3969 15.6357 23.1258 14.6583 25.092C13.6796 27.0577 13.1626 29.2556 13.1641 31.5891C13.1626 34.4102 13.7812 37.016 15.032 39.2896C16.223 41.4625 17.9953 43.3105 20.2518 44.7556C19.7183 46.8987 18.9681 49.9614 18.9681 49.9629C18.9338 50.1005 18.9159 50.2438 18.9174 50.3892C18.9159 50.9646 19.1969 51.5186 19.6854 51.8757L19.6884 51.8778V51.8786C20.0382 52.1324 20.4595 52.2622 20.881 52.2622C21.1978 52.2622 21.519 52.1887 21.809 52.0398L21.8374 52.0255L21.8658 52.0091C21.8673 52.0084 22.2693 51.7809 22.888 51.4316C23.8144 50.9083 25.2266 50.112 26.4863 49.4041C27.1155 49.0504 27.7073 48.7189 28.1794 48.4559C28.6501 48.1936 29.0117 47.9932 29.1463 47.9226L29.1523 47.9191L29.1612 47.9141C30.917 46.9645 32.3158 46.8047 33.4395 46.7991C38.1034 46.7926 43.0698 45.93 47.0358 43.5681C49.0143 42.3853 50.7358 40.8076 51.9463 38.7878C53.1596 36.7695 53.844 34.3262 53.8426 31.498C53.8514 27.0499 51.8893 22.974 48.3238 20.1058ZM49.2907 37.3368C48.5898 38.5024 47.6723 39.4834 46.571 40.3147C44.9197 41.5602 42.8471 42.4592 40.5742 43.0388C38.3021 43.6199 35.8348 43.8794 33.4394 43.8787C31.969 43.873 29.9143 44.1375 27.6593 45.3709V45.3701C27.4097 45.5027 26.8539 45.8115 26.1216 46.2206C25.0711 46.8088 23.6888 47.5866 22.5352 48.2382C22.8161 47.094 23.1435 45.7687 23.387 44.7955V44.7941C23.4274 44.6315 23.4572 44.4553 23.4572 44.2551C23.4602 43.9727 23.384 43.6284 23.2137 43.3419C23.0866 43.1272 22.9237 42.9583 22.7818 42.8428C22.5637 42.6696 22.4008 42.5947 22.3096 42.5469L22.2169 42.502L22.2064 42.4964C20.2085 41.2679 18.738 39.7423 17.7429 37.9336C16.7477 36.1219 16.2246 34.0081 16.2246 31.5891C16.2246 29.6634 16.6445 27.9104 17.4231 26.3441C18.5916 23.9985 20.5746 22.0529 23.2854 20.6663C25.9932 19.2824 29.4347 18.4726 33.4395 18.4726C39.103 18.474 43.4449 19.9911 46.347 22.3352C49.2445 24.6872 50.7717 27.854 50.7822 31.4978C50.7791 33.8862 50.2202 35.7819 49.2907 37.3368Z" fill="#1D70B8"/>
  <path d="M23.8962 29.4419C22.603 29.4419 21.5547 30.4429 21.5547 31.677C21.5547 32.911 22.603 33.9113 23.8962 33.9113C25.1903 33.9113 26.2386 32.9111 26.2386 31.677C26.2387 30.4429 25.1904 29.4419 23.8962 29.4419Z" fill="#1D70B8"/>
  <path d="M33.0292 29.4419C31.7358 29.4419 30.6875 30.4429 30.6875 31.677C30.6875 32.911 31.7358 33.9113 33.0292 33.9113C34.3233 33.9113 35.3716 32.9111 35.3716 31.677C35.3716 30.4429 34.3233 29.4419 33.0292 29.4419Z" fill="#1D70B8"/>
  <path d="M42.1627 29.4419C40.8694 29.4419 39.8203 30.4429 39.8203 31.677C39.8203 32.911 40.8694 33.9113 42.1627 33.9113C43.4567 33.9113 44.5052 32.9111 44.5052 31.677C44.5052 30.4429 43.4567 29.4419 42.1627 29.4419Z" fill="#1D70B8"/>
</svg>
