<svg width="31" height="41" viewBox="0 0 31 41" fill="none" xmlns="http://www.w3.org/2000/svg">
<path d="M30.6939 6.89228C30.3988 6.19437 29.9079 5.60414 29.2895 5.18545C28.6711 4.76793 27.9181 4.52179 27.1173 4.52179H23.7747V3.94512H18.9296C18.9517 3.78839 18.964 3.62673 18.964 3.46389C18.9639 1.55378 17.4101 0 15.5 0C13.5899 0 12.0361 1.55378 12.0361 3.46389C12.0361 3.62673 12.0483 3.78839 12.0704 3.94512H7.2254V4.52179H3.88266C3.34877 4.52179 2.83581 4.63079 2.37174 4.82788C1.67384 5.12299 1.08243 5.61394 0.663658 6.2323C0.246139 6.85184 0 7.60366 0 8.40445V36.2405C0 36.7719 0.109003 37.2862 0.306087 37.7515C0.601202 38.4494 1.09215 39.0396 1.71051 39.4583C2.33005 39.8771 3.08187 40.1219 3.88266 40.1219H27.1173C27.65 40.1219 28.1642 40.0142 28.6283 39.8159C29.3274 39.522 29.9176 39.0298 30.3363 38.4114C30.7539 37.7931 31 37.0401 31 36.2405V8.40445C31 7.87064 30.8923 7.3576 30.6939 6.89228ZM15.5 2.17826C16.209 2.17826 16.7856 2.75494 16.7856 3.46389C16.7856 3.63409 16.7513 3.79568 16.6914 3.94512H14.3098C14.2486 3.79576 14.2143 3.63409 14.2143 3.46389C14.2144 2.75494 14.7923 2.17826 15.5 2.17826ZM28.6907 36.2405C28.6907 36.461 28.6466 36.6642 28.5671 36.8515C28.4495 37.1319 28.2487 37.3744 27.9965 37.5457C27.7442 37.7147 27.448 37.8127 27.1173 37.8127H3.88266C3.66222 37.8127 3.45777 37.7685 3.27041 37.6902C2.98877 37.5714 2.74757 37.3694 2.57736 37.1184C2.40841 36.8661 2.31046 36.5698 2.30921 36.2405V8.40445C2.30921 8.18401 2.35332 7.97956 2.43286 7.7922C2.55166 7.51056 2.75243 7.26811 3.00343 7.09915C3.25568 6.9302 3.55197 6.83225 3.88258 6.831H7.22524V7.31222C7.22524 8.21583 7.95747 8.94805 8.86233 8.94805H22.1388C23.0424 8.94805 23.7746 8.21583 23.7746 7.31222V6.831H27.1173C27.3377 6.831 27.5421 6.87511 27.7295 6.95465C28.0099 7.0722 28.2524 7.27304 28.4226 7.52521C28.5928 7.77739 28.6907 8.07376 28.6907 8.40437V36.2405Z" fill="white"/>
<path d="M10.1543 13.3741H7.67603V15.8524H10.1543V13.3741Z" fill="white"/>
<path d="M23.3272 13.3741H13.1118V15.8524H23.3272V13.3741Z" fill="white"/>
<path d="M10.1543 20.6969H7.67603V23.1751H10.1543V20.6969Z" fill="white"/>
<path d="M23.3272 20.6969H13.1118V23.1751H23.3272V20.6969Z" fill="white"/>
<path d="M10.1543 28.0231H7.67603V30.5013H10.1543V28.0231Z" fill="white"/>
<path d="M23.3272 28.0231H13.1118V30.5013H23.3272V28.0231Z" fill="white"/>
</svg>
