<svg width="55" height="59" fill="none" xmlns="http://www.w3.org/2000/svg">
  <g clip-path="url(#a)" fill="#fff"><path d="M27.547 21.442a4.675 4.675 0 1 0 0-9.348 4.675 4.675 0 1 0 0 9.348ZM33.28 41.33h-.636c-.65 0-1.179-.527-1.179-1.177V24.218a.618.618 0 0 0-.905-.546l-8.035 4.463c-2.339 1.169-1.217 2.564-.346 2.529.87-.036 3.463-.291 3.463-.291v9.78c0 .65-.528 1.177-1.178 1.177h-1.248a.59.59 0 0 0-.59.59v2.567a.59.59 0 0 0 .59.589h10.063a.59.59 0 0 0 .59-.589V41.92a.59.59 0 0 0-.59-.589Z"/></g>
  <defs><clipPath id="a"><path fill="#fff" transform="translate(11 12.094)" d="M0 0h33v32.982H0z"/></clipPath></defs>
</svg>
