<svg xmlns="http://www.w3.org/2000/svg" width="67" height="67" viewBox="0 0 67 67" fill="none">
  <circle cx="33.5" cy="33.5" r="33.5" fill="#F0F4F5"/>
  <path d="M25.2755 45.0137L39.9707 42.8736C39.9707 38.2368 46.2482 32.4586 46.2482 24.6116C46.2482 16.9787 40.1847 10.7725 32.6944 10.7725C25.2042 10.7725 19.1406 16.9787 19.1406 24.6116C19.1406 32.3872 25.2755 38.1654 25.2755 42.8023V45.0137Z" stroke="#1D70B8" stroke-width="1.75" stroke-linecap="round" stroke-linejoin="round"/>
  <path d="M26.2734 48.0702L39.6846 46.0015" stroke="#1D70B8" stroke-width="1.75" stroke-linecap="round" stroke-linejoin="round"/>
  <path d="M26.2734 50.8466L39.6846 48.7778" stroke="#1D70B8" stroke-width="1.75" stroke-linecap="round" stroke-linejoin="round"/>
  <path d="M37.9011 52.937C37.9011 54.0784 35.6897 55.0058 32.9076 55.0058C30.1255 55.0058 27.9141 54.0784 27.9141 52.937" stroke="#1D70B8" stroke-width="1.75" stroke-linecap="round" stroke-linejoin="round"/>
  <path d="M30.8405 39.8809C30.8405 31.0353 28.3438 27.8965 28.3438 27.8965C28.3438 27.8965 29.3425 30.1079 30.4838 30.1079C31.6965 30.1079 32.6239 29.1092 32.6239 27.8965C32.6239 29.1092 33.6226 30.1079 34.764 30.1079C35.9767 30.1079 36.9041 27.8965 36.9041 27.8965C36.9041 27.8965 34.9066 32.676 34.9066 39.8809" stroke="#1D70B8" stroke-width="1.75" stroke-linecap="round" stroke-linejoin="round"/>
</svg>
