<svg width="56" height="56" viewBox="0 0 56 56" fill="none" xmlns="http://www.w3.org/2000/svg">
<circle cx="28" cy="28" r="28" fill="#F0F4F5"/>
<path d="M21.1277 37.6195L33.4102 35.8308C33.4102 31.9552 38.6571 27.1257 38.6571 20.5671C38.6571 14.1873 33.5891 9 27.3286 9C21.068 9 16 14.1873 16 20.5671C16 27.0661 21.1277 31.8956 21.1277 35.7712V37.6195Z" stroke="#D53880" stroke-width="1.75" stroke-linecap="round" stroke-linejoin="round"/>
<path d="M21.9614 40.1723L33.1707 38.4432" stroke="#D53880" stroke-width="1.75" stroke-linecap="round" stroke-linejoin="round"/>
<path d="M21.9614 42.4937L33.1707 40.7646" stroke="#D53880" stroke-width="1.75" stroke-linecap="round" stroke-linejoin="round"/>
<path d="M31.6796 44.2424C31.6796 45.1964 29.8313 45.9715 27.506 45.9715C25.1806 45.9715 23.3323 45.1964 23.3323 44.2424" stroke="#D53880" stroke-width="1.75" stroke-linecap="round" stroke-linejoin="round"/>
<path d="M25.7782 33.331C25.7782 25.9377 23.6914 23.3142 23.6914 23.3142C23.6914 23.3142 24.5261 25.1626 25.4801 25.1626C26.4937 25.1626 27.2688 24.3278 27.2688 23.3142C27.2688 24.3278 28.1036 25.1626 29.0576 25.1626C30.0712 25.1626 30.8463 23.3142 30.8463 23.3142C30.8463 23.3142 29.1768 27.309 29.1768 33.331" stroke="#D53880" stroke-width="1.75" stroke-linecap="round" stroke-linejoin="round"/>
</svg>
