<svg width="26" height="25" viewBox="0 0 26 25" fill="none" xmlns="http://www.w3.org/2000/svg">
<path d="M17.0847 3.7005C18.7244 2.09208 21.1227 2.0583 22.4504 3.36075C23.7806 4.66565 23.7448 7.024 22.1041 8.63351L19.3333 11.3515C18.9992 11.6794 19.0002 12.2098 19.3356 12.5364C19.6711 12.8629 20.214 12.8619 20.5482 12.534L23.3189 9.81601C25.5038 7.67273 25.7781 4.25086 23.6653 2.17824C21.5499 0.103161 18.0559 0.373612 15.8699 2.518L10.3283 7.95405C8.14348 10.0973 7.86917 13.5192 9.982 15.5918C10.3162 15.9197 10.859 15.9207 11.1944 15.5942C11.5299 15.2676 11.531 14.7372 11.1968 14.4093C9.86661 13.1045 9.90244 10.7461 11.5432 9.13655L17.0847 3.7005Z" fill="white"/>
<path d="M15.6633 9.9419C15.3292 9.6141 14.7863 9.61307 14.4508 9.9396C14.1154 10.2661 14.1144 10.7966 14.4485 11.1244C15.7787 12.4293 15.7429 14.7876 14.1021 16.3971L8.56063 21.8332C6.92099 23.4417 4.52259 23.4755 3.19488 22.173C1.86465 20.8681 1.90049 18.5097 3.54123 16.9001L6.31202 14.1822C6.64619 13.8543 6.64514 13.3239 6.30967 12.9973C5.97421 12.6708 5.43135 12.6718 5.09719 12.9997L2.32641 15.7176C0.141523 17.861 -0.132784 21.2829 1.98005 23.3555C4.0954 25.4306 7.58945 25.1601 9.77545 23.0157L15.3169 17.5796C17.5018 15.4364 17.7762 12.0145 15.6633 9.9419Z" fill="white"/>
</svg>
