<svg width="44" height="44" viewBox="0 0 44 44" fill="none" xmlns="http://www.w3.org/2000/svg">
<g id="Group 94">
<rect id="Rectangle 62" width="43.5323" height="43.5323" rx="10" fill="#4C2C92"/>
<g id="Group 86">
<path id="Vector" d="M25.2205 13.732C26.6053 12.2389 28.6308 12.2075 29.7521 13.4166C30.8755 14.628 30.8453 16.8173 29.4596 18.3115L27.1196 20.8347C26.8374 21.1391 26.8382 21.6315 27.1215 21.9346C27.4048 22.2377 27.8633 22.2368 28.1455 21.9325L30.4855 19.4092C32.3308 17.4196 32.5625 14.2429 30.7781 12.3189C28.9915 10.3925 26.0407 10.6436 24.1945 12.6343L19.5144 17.6807C17.6692 19.6704 17.4375 22.8471 19.2219 24.7711C19.5041 25.0755 19.9626 25.0764 20.2459 24.7733C20.5292 24.4702 20.5301 23.9777 20.2479 23.6734C19.1245 22.462 19.1547 20.2727 20.5404 18.7785L25.2205 13.732Z" fill="white"/>
<path id="Vector_2" d="M23.7781 19.2289C23.4959 18.9245 23.0374 18.9236 22.754 19.2267C22.4708 19.5299 22.4699 20.0223 22.7521 20.3266C23.8755 21.538 23.8453 23.7273 22.4596 25.2215L17.7795 30.268C16.3948 31.7611 14.3692 31.7926 13.2479 30.5834C12.1245 29.372 12.1547 27.1826 13.5404 25.6884L15.8805 23.1652C16.1627 22.8609 16.1618 22.3685 15.8785 22.0653C15.5952 21.7622 15.1367 21.7631 14.8545 22.0675L12.5144 24.5907C10.6692 26.5804 10.4375 29.7571 12.2219 31.6812C14.0084 33.6075 16.9593 33.3564 18.8055 31.3657L23.4855 26.3192C25.3308 24.3296 25.5625 21.153 23.7781 19.2289Z" fill="white"/>
</g>
</g>
</svg>
